HIERARCHY
ROOT hip
{
  OFFSET 0 0 0
  CHANNELS 6 Xposition Yposition Zposition Zrotation Yrotation Xrotation
  JOINT abdomen
  {
    OFFSET 0 20.6881 -0.73152
    CHANNELS 3 Zrotation Xrotation Yrotation
    JOINT chest
    {
      OFFSET 0 11.7043 -0.48768
      CHANNELS 3 Zrotation Xrotation Yrotation
      JOINT neck
      {
        OFFSET 0 22.1894 -2.19456
        CHANNELS 3 Zrotation Xrotation Yrotation
        JOINT head
        {
          OFFSET -0.24384 7.07133 1.2192
          CHANNELS 3 Zrotation Xrotation Yrotation
          JOINT leftEye
          {
            OFFSET 4.14528 8.04674 8.04672
            CHANNELS 3 Zrotation Xrotation Yrotation
            End Site
            {
              OFFSET 1 0 0
            }
          }
          JOINT rightEye
          {
            OFFSET -3.6576 8.04674 8.04672
            CHANNELS 3 Zrotation Xrotation Yrotation
            End Site
            {
              OFFSET 1 0 0
            }
          }
        }
      }
      JOINT rCollar
      {
        OFFSET -2.68224 19.2634 -4.8768
        CHANNELS 3 Zrotation Xrotation Yrotation
        JOINT rShldr
        {
          OFFSET -8.77824 -1.95073 1.46304
          CHANNELS 3 Zrotation Xrotation Yrotation
          JOINT rForeArm
          {
            OFFSET -28.1742 -1.7115 0.48768
            CHANNELS 3 Zrotation Xrotation Yrotation
            JOINT rHand
            {
              OFFSET -22.5879 0.773209 7.07136
              CHANNELS 3 Zrotation Xrotation Yrotation
              JOINT rThumb1
              {
                OFFSET -1.2192 -0.487915 3.41376
                CHANNELS 3 Zrotation Xrotation Yrotation
                JOINT rThumb2
                {
                  OFFSET -3.37035 -0.52449 3.41376
                  CHANNELS 3 Zrotation Xrotation Yrotation
                  End Site
                  {
                    OFFSET -1.78271 -1.18214 1.43049
                  }
                }
              }
              JOINT rIndex1
              {
                OFFSET -7.75947 0.938293 5.60832
                CHANNELS 3 Zrotation Xrotation Yrotation
                JOINT rIndex2
                {
                  OFFSET -2.54057 -0.884171 1.56538
                  CHANNELS 3 Zrotation Xrotation Yrotation
                  End Site
                  {
                    OFFSET -1.62519 -0.234802 1.16502
                  }
                }
              }
              JOINT rMid1
              {
                OFFSET -8.24714 1.18213 3.41376
                CHANNELS 3 Zrotation Xrotation Yrotation
                JOINT rMid2
                {
                  OFFSET -3.10165 -0.590103 1.0647
                  CHANNELS 3 Zrotation Xrotation Yrotation
                  End Site
                  {
                    OFFSET -2.48547 -0.328903 0.83742
                  }
                }
              }
              JOINT rRing1
              {
                OFFSET -8.82822 0.546677 1.51678
                CHANNELS 3 Zrotation Xrotation Yrotation
                JOINT rRing2
                {
                  OFFSET -2.60934 -0.819778 -0.0198488
                  CHANNELS 3 Zrotation Xrotation Yrotation
                  End Site
                  {
                    OFFSET -2.33842 -0.294052 0.168128
                  }
                }
              }
              JOINT rPinky1
              {
                OFFSET -8.27202 -0.0477905 -0.4584
                CHANNELS 3 Zrotation Xrotation Yrotation
                JOINT rPinky2
                {
                  OFFSET -1.82734 -0.647385 -0.700984
                  CHANNELS 3 Zrotation Xrotation Yrotation
                  End Site
                  {
                    OFFSET -1.69225 -0.51767 -0.607171
                  }
                }
              }
            }
          }
        }
      }
      JOINT lCollar
      {
        OFFSET 2.68224 19.2634 -4.8768
        CHANNELS 3 Zrotation Xrotation Yrotation
        JOINT lShldr
        {
          OFFSET 8.77824 -1.95073 1.46304
          CHANNELS 3 Zrotation Xrotation Yrotation
          JOINT lForeArm
          {
            OFFSET 28.1742 -1.7115 0.48768
            CHANNELS 3 Zrotation Xrotation Yrotation
            JOINT lHand
            {
              OFFSET 22.5879 0.773209 7.07136
              CHANNELS 3 Zrotation Xrotation Yrotation
              JOINT lThumb1
              {
                OFFSET 1.2192 -0.487915 3.41376
                CHANNELS 3 Zrotation Xrotation Yrotation
                JOINT lThumb2
                {
                  OFFSET 3.37035 -0.52449 3.41376
                  CHANNELS 3 Zrotation Xrotation Yrotation
                  End Site
                  {
                    OFFSET 1.78271 -1.18214 1.43049
                  }
                }
              }
              JOINT lIndex1
              {
                OFFSET 7.75947 0.938293 5.60832
                CHANNELS 3 Zrotation Xrotation Yrotation
                JOINT lIndex2
                {
                  OFFSET 2.54057 -0.884171 1.56538
                  CHANNELS 3 Zrotation Xrotation Yrotation
                  End Site
                  {
                    OFFSET 1.62519 -0.234802 1.16502
                  }
                }
              }
              JOINT lMid1
              {
                OFFSET 8.24714 1.18213 3.41376
                CHANNELS 3 Zrotation Xrotation Yrotation
                JOINT lMid2
                {
                  OFFSET 3.10165 -0.590103 1.0647
                  CHANNELS 3 Zrotation Xrotation Yrotation
                  End Site
                  {
                    OFFSET 2.48547 -0.328903 0.83742
                  }
                }
              }
              JOINT lRing1
              {
                OFFSET 8.82822 0.546677 1.51678
                CHANNELS 3 Zrotation Xrotation Yrotation
                JOINT lRing2
                {
                  OFFSET 2.60934 -0.819778 -0.0198488
                  CHANNELS 3 Zrotation Xrotation Yrotation
                  End Site
                  {
                    OFFSET 2.33842 -0.294052 0.168128
                  }
                }
              }
              JOINT lPinky1
              {
                OFFSET 8.27202 -0.0477905 -0.4584
                CHANNELS 3 Zrotation Xrotation Yrotation
                JOINT lPinky2
                {
                  OFFSET 1.82734 -0.647385 -0.700984
                  CHANNELS 3 Zrotation Xrotation Yrotation
                  End Site
                  {
                    OFFSET 1.69225 -0.51767 -0.607171
                  }
                }
              }
            }
          }
        }
      }
    }
  }
  JOINT rButtock
  {
    OFFSET -8.77824 4.35084 1.2192
    CHANNELS 3 Zrotation Xrotation Yrotation
    JOINT rThigh
    {
      OFFSET 0 -1.70687 -2.19456
      CHANNELS 3 Zrotation Xrotation Yrotation
      JOINT rShin
      {
        OFFSET 0 -36.8199 0.73152
        CHANNELS 3 Zrotation Xrotation Yrotation
        JOINT rFoot
        {
          OFFSET 0.73152 -45.1104 -5.12064
          CHANNELS 3 Zrotation Xrotation Yrotation
          End Site
          {
            OFFSET -1.1221 -3.69964 12.103
          }
        }
      }
    }
  }
  JOINT lButtock
  {
    OFFSET 8.77824 4.35084 1.2192
    CHANNELS 3 Zrotation Xrotation Yrotation
    JOINT lThigh
    {
      OFFSET 0 -1.70687 -2.19456
      CHANNELS 3 Zrotation Xrotation Yrotation
      JOINT lShin
      {
        OFFSET 0 -36.8199 0.73152
        CHANNELS 3 Zrotation Xrotation Yrotation
        JOINT lFoot
        {
          OFFSET -0.73152 -45.1104 -5.12064
          CHANNELS 3 Zrotation Xrotation Yrotation
          End Site
          {
            OFFSET 1.1221 -3.69964 12.103
          }
        }
      }
    }
  }
}
MOTION
Frames:	4
Frame Time:	0.00833333
53.9761 64.915 138.363 -178.22 0.0226 209.532 2.42588 24.9237 2.96853 -0.0966016 -18.055 0.692639 -4.97025 9.32249 -4.37875 9.66153 -61.775 -3.87584 -0.0 0.0 0.0 -0.0 0.0 0.0 -4.65566e-14 5.72518e-14 6.06231e-14 56.5526 -5.1417 -24.7091 -11.5976 -5.17952 20.8188 -2.98036 43.0336 7.54186 7.13628e-10 -4.1686e-10 -6.50179e-10 1.20879e-09 -7.12054e-10 -1.14856e-09 7.1363e-10 -4.16863e-10 -6.50203e-10 7.73091 5.47488 0.417314 7.13626e-10 -4.16859e-10 -6.50185e-10 2.90554 0.965183 0.102902 7.13638e-10 -4.16856e-10 -6.50181e-10 10.2786 0.731801 0.0259123 7.13629e-10 -4.16854e-10 -6.50178e-10 2.22167 -0.733487 -0.20892 -4.67199e-14 5.72469e-14 6.03964e-14 -66.6961 -15.1866 23.2698 13.6431 -6.6689 -24.8414 0.378084 17.2587 -2.50183 1.00048e-09 -1.406e-09 2.49521e-09 1.76176e-09 -2.45135e-09 4.2978e-09 1.00047e-09 -1.406e-09 2.49522e-09 -7.73091 5.47488 -0.417314 1.00048e-09 -1.406e-09 2.49521e-09 -2.90554 0.965183 -0.102902 1.00048e-09 -1.406e-09 2.4952e-09 -10.2786 0.731801 -0.0259123 1.00049e-09 -1.406e-09 2.49519e-09 -2.22167 -0.733487 0.20892 -2.03217e-16 0.0 -3.88251e-19 -0.167387 -80.5655 -12.7345 -5.51396 81.7036 6.97249 -13.6635 -23.6415 -22.6594 2.03217e-16 0.0 3.88251e-19 15.2096 -81.7292 16.5538 5.56385 81.0411 -6.32265 5.55044 -27.9417 8.93551
54.0577 64.7004 138.217 -178.289 -0.5442 209.143 2.46576 25.2416 3.24376 -0.176891 -18.1515 0.717085 -5.36615 9.40476 -3.44655 7.39391 -62.0873 -7.08654 -0.0 0.0 0.0 -0.0 0.0 0.0 -8.28213e-14 6.7539e-14 2.77646e-14 59.6934 -4.26195 -20.2445 -11.1704 -4.88935 20.0062 -3.25778 44.4823 7.93942 1.23276e-09 -2.796e-10 -7.74966e-10 2.09633e-09 -4.92089e-10 -1.38084e-09 1.23276e-09 -2.796e-10 -7.74981e-10 7.73091 5.47488 0.417314 1.23275e-09 -2.79598e-10 -7.74975e-10 2.90554 0.965183 0.102902 1.23277e-09 -2.79596e-10 -7.7497e-10 10.2786 0.731801 0.0259123 1.23276e-09 -2.79595e-10 -7.7497e-10 2.22167 -0.733487 -0.20892 -8.29418e-14 6.75341e-14 2.74909e-14 -70.4793 -13.1952 19.2668 13.4946 -6.55375 -24.543 0.426554 18.2682 -2.65869 7.77312e-10 -1.43081e-09 2.55715e-09 1.37907e-09 -2.49873e-09 4.40615e-09 7.77305e-10 -1.43081e-09 2.55717e-09 -7.73091 5.47488 -0.417314 7.77315e-10 -1.43081e-09 2.55716e-09 -2.90554 0.965183 -0.102902 7.77311e-10 -1.43081e-09 2.55715e-09 -10.2786 0.731801 -0.0259123 7.77319e-10 -1.4308e-09 2.55714e-09 -2.22167 -0.733487 0.20892 -2.03217e-16 0.0 -3.88251e-19 -0.826036 -80.2236 -13.7064 -5.91328 82.2164 7.41186 -14.231 -23.4542 -23.5957 2.03217e-16 0.0 3.88251e-19 12.7507 -81.5442 13.9456 5.84281 81.4027 -6.60002 5.43832 -27.9024 8.76196
54.145 64.5326 138.108 -178.365 -1.1048 208.824 2.43229 25.405 3.51655 -0.237325 -18.1067 0.753572 -5.63921 9.41978 -2.8455 5.81664 -62.2315 -9.37953 -0.0 0.0 0.0 -0.0 0.0 0.0 -9.75676e-14 7.63353e-14 4.91992e-15 62.8152 -2.34788 -15.3883 -10.9339 -4.72862 19.565 -3.28427 44.6642 7.98437 1.68454e-09 -2.03406e-10 -1.01152e-09 2.86754e-09 -3.68734e-10 -1.80247e-09 1.68455e-09 -2.03404e-10 -1.01153e-09 7.73091 5.47488 0.417314 1.68454e-09 -2.03404e-10 -1.01153e-09 2.90554 0.965183 0.102902 1.68455e-09 -2.03403e-10 -1.01152e-09 10.2786 0.731801 0.0259123 1.68455e-09 -2.03402e-10 -1.01152e-09 2.22167 -0.733487 -0.20892 -9.76453e-14 7.63306e-14 4.62174e-15 -73.7453 -10.7296 15.3691 13.4067 -6.48559 -24.368 0.449987 18.7191 -2.72961 5.8359e-10 -1.22669e-09 2.73009e-09 1.04757e-09 -2.14783e-09 4.7069e-09 5.83583e-10 -1.22669e-09 2.73011e-09 -7.73091 5.47488 -0.417314 5.83593e-10 -1.22669e-09 2.73009e-09 -2.90554 0.965183 -0.102902 5.8359e-10 -1.22669e-09 2.73009e-09 -10.2786 0.731801 -0.0259123 5.83597e-10 -1.22669e-09 2.73008e-09 -2.22167 -0.733487 0.20892 -2.03217e-16 0.0 -3.88251e-19 -0.992031 -79.7882 -14.0728 -6.21431 82.5615 7.7431 -14.659 -23.2872 -24.3207 2.03217e-16 0.0 3.88251e-19 10.611 -81.2221 11.6631 6.02364 81.6178 -6.77497 5.26413 -27.8638 8.48886
54.2652 64.5438 137.988 -178.339 -1.6676 208.439 2.26839 25.3342 3.79837 -0.266871 -17.8245 0.809132 -5.73776 9.34454 -2.72122 5.3673 -62.2693 -10.2969 -0.0 0.0 0.0 -0.0 0.0 0.0 -7.42773e-14 8.43114e-14 -5.47823e-15 65.655 1.0905 -10.0593 -10.9524 -4.73733 19.6059 -2.92695 42.922 7.49058 2.13765e-09 -2.12289e-10 -1.53603e-09 3.63797e-09 -3.78152e-10 -2.71845e-09 2.13765e-09 -2.12285e-10 -1.53604e-09 7.73091 5.47488 0.417314 2.13765e-09 -2.12285e-10 -1.53604e-09 2.90554 0.965183 0.102902 2.13766e-09 -2.12285e-10 -1.53603e-09 10.2786 0.731801 0.0259123 2.13765e-09 -2.12285e-10 -1.53603e-09 2.22167 -0.733487 -0.20892 -7.43075e-14 8.43072e-14 -5.76553e-15 -76.4454 -7.80459 11.5085 13.3032 -6.39447 -24.1868 0.439998 18.4853 -2.69337 3.9651e-10 -6.0612e-10 3.1829e-09 7.29506e-10 -1.07337e-09 5.49267e-09 3.96504e-10 -6.06121e-10 3.18292e-09 -7.73091 5.47488 -0.417314 3.96512e-10 -6.06119e-10 3.1829e-09 -2.90554 0.965183 -0.102902 3.96509e-10 -6.06119e-10 3.1829e-09 -10.2786 0.731801 -0.0259123 3.96517e-10 -6.06118e-10 3.18289e-09 -2.22167 -0.733487 0.20892 -2.03217e-16 0.0 -3.88251e-19 -0.519428 -79.2556 -13.6313 -6.34415 82.7046 7.89164 -14.924 -23.2161 -24.7603 2.03217e-16 0.0 3.88251e-19 8.87236 -80.7526 9.79626 6.07393 81.667 -6.81469 5.03 -27.8458 8.11674
